<?xml version="1.0" encoding="UTF-8"?>
<svg id="_Слой_1" data-name="Слой 1" xmlns="http://www.w3.org/2000/svg" viewBox="0 0 600 600">
  <defs>
    <style>
      .cls-1 {
        fill: #c3985b;
      }

      .cls-2 {
        fill: #8e3633;
      }
    </style>
  </defs>
  <path class="cls-2" d="M400.9,185.31c-14.1,.5-28.2,.76-42.28,1.57-8.89,.51-14.32,5.79-16.93,15.04-1.65,5.86-1.67,11.85-1.32,17.83,1.51,25.99-10.05,45.22-30.76,59.69-8.48,5.92-8.53,5.77-1.32,13.03,14.74,14.84,48.45,48.96,49.9,51.7-2.06-.06-2.62,1.08-2.58,2.96,.11,6.03-4.61,9.06-9.98,6.48-.31-.15-.81-.21-1.09-.06-.59,.32-.66,.91-.24,1.44,.67,.85,1.39,1.66,2.11,2.5-1.56,1.25-3.47-1.59-4.67,.9-1.31,2.74,2.06,1.64,2.34,3.04,.24,1.2,2.81,2.84-1,3.18-1.55,.14-4.01,2.02-4.18,3.35-.51,4.02-2.78,3.57-5.58,2.57,.26,2.13,.46,3.78,.66,5.43-8.1-6.35-28.92-28.95-32.21-32.88-2.34-2.79-3.83-2.26-6.07,0-13.12,13.31-26.33,26.54-39.54,39.76-13.92,13.92-27.94,27.75-41.77,41.76-2.31,2.34-3.63,2.2-5.8-.04-7.75-7.98-15.6-15.88-23.6-23.62-2.56-2.48-1.1-3.88,.63-5.58,12.53-12.29,25.12-24.52,37.57-36.89,23.79-23.63,47.49-47.35,71.28-70.98,1.82-1.81,2.11-3.01-.14-4.72-5.06-3.84-10.39-7.35-14.94-11.83-12.55-12.36-19.45-27.25-20-44.92-.18-5.7,.5-11.47-.07-17.11-.9-8.9-3.22-17.24-13-20.8-2.48-.9-5.01-1.1-7.57-1.2-11.98-.5-23.96-.96-35.94-1.36-1.16-.04-2.78-.85-3.43,.72-.54,1.33,.67,2.39,1.44,3.35,16.06,19.97,23.28,43.15,22.78,68.36-.56,28.27-10.21,53.3-30.67,73.54-12.15,12.02-24.41,23.93-36.4,36.1-2.64,2.68-3.98,2.26-6.32-.18-9.58-9.99-19.35-19.79-29.04-29.68-3.64-3.72-3.62-3.76,1.16-5.39,23.41-7.99,41.77-22.32,52.8-44.6,16.38-33.08,5.6-71.85-24.98-92.61-8.21-5.57-16.92-10.08-26.72-12.07-2.86-.58-3.86-1.75-3.79-4.86,.24-9.56,.16-19.13-.08-28.68-.08-3.19,.76-4.14,4.03-4.14,38.96,.08,77.93-.07,116.89,.01,29.72,.06,51.34,18.29,56.66,47.52,.82,4.48,1.29,9.03,1.93,13.54-.3,3.99-.15,7.95,1.05,11.88-.44-4.02,2.01-7.86,.49-11.91,.65-11.23,3.11-21.97,8.34-32.04,5.8-11.15,14.75-18.7,26.02-23.96,8.46-3.95,17.29-5.21,26.48-5.2,37.96,.05,75.92,.05,113.88-.05,3.24,0,4.55,.69,4.47,4.24-.2,9.56-.1,19.12,.08,28.68,.05,2.76-.78,3.88-3.57,4.63-20.27,5.49-36.84,16.37-48.34,34.26-19.11,29.72-13.14,70.01,13.29,93.37,11.15,9.86,22.72,18.59,37.44,22.3,4.42,1.11,1.53,2.9,.18,4.25-19.45,19.48-38.92,38.95-58.43,58.38-38.91,38.76-77.85,77.49-116.77,116.24-.2,.2-.46,.36-.63,.58-2.58,3.52-4.56,3.38-7.77,.05-17.22-17.87-34.72-35.49-52.23-53.08-2.61-2.62-3.28-4.18-.11-7.11,7.97-7.34,15.59-15.08,23.16-22.84,2.15-2.2,3.38-2.14,5.47,.03,8.43,8.72,17.07,17.22,25.53,25.91,1.66,1.7,2.67,1.99,4.4,.11,16.98-18.44,35.88-34.93,53.51-52.72,19.48-19.65,39.15-39.12,58.92-58.48,2.79-2.73,1.74-3.98-.46-5.85-11.42-9.74-20.85-21.06-27.17-34.79-12.31-26.75-13.97-54.2-4.71-82.11,4.25-12.79,10.55-24.64,19.59-34.84,.51-.15,.56-.54,.36-.92-.08-.15-.42-.17-.64-.24Z"/>
  <path class="cls-1" d="M333.96,375.97c-.2-1.65-.4-3.3-.66-5.43,2.8,1.01,5.07,1.45,5.58-2.57,.17-1.33,2.63-3.21,4.18-3.35,3.81-.34,1.23-1.97,1-3.18-.28-1.39-3.65-.3-2.34-3.04,1.2-2.49,3.11,.34,4.67-.9-.72-.85-1.44-1.65-2.11-2.5-.42-.53-.34-1.12,.24-1.44,.27-.15,.78-.09,1.09,.06,5.37,2.58,10.1-.45,9.98-6.48-.04-1.88,.52-3.02,2.58-2.96,0,0-.1-.02-.1-.02,.43,1.54-.4,4.61,3.03,2.5,6.39,5.55,12.47,11.41,18.14,17.7,1.86,2.06,2.04,3.8-.28,5.66-8.22,6.6-15.33,14.38-22.8,21.77-2.94,2.91-4.89,2.96-7.84-.29-4.73-5.22-10-9.97-14.38-15.53Z"/>
  <path class="cls-1" d="M141.02,253.92c-.14,10.73-8.75,19.22-19.38,19.11-10.98-.11-19.39-8.41-19.34-19.07,.05-11.39,8.93-19.91,20.65-19.82,9.13,.07,18.2,9.99,18.07,19.78Z"/>
  <path class="cls-1" d="M497.71,253.55c.05,9.96-8.99,19.49-18.37,19.38-11.51-.14-20.12-8.39-20.15-19.32-.03-10.76,8.61-19.13,19.74-19.12,10.5,0,18.72,8.35,18.78,19.07Z"/>
  <path class="cls-1" d="M299.72,398.38c-.13-1.73-1.08-2.06-2.16-.87-2.06,2.27-19.41,18.74-20.21,19.51-3.73,3.59-3.73,4.15-.1,7.78,2.22,2.21,4.42,4.44,6.69,6.59,4.89,4.62,9.82,9.2,14.69,13.75,1.24-1.05,.93-1.97,.93-2.77,.08-14.09,.13-28.19,.18-42.28,0-.57,.02-1.14-.03-1.71Z"/>
  <path class="cls-2" d="M362.07,347.49c-4.3,2.92-5.27-4.01-5.7-5.55l5.7,5.55Z"/>
  <path class="cls-1" d="M400.9,185.31c.22,.08,.56,.09,.64,.24,.2,.38,.15,.77-.36,.92-.09-.39-.18-.77-.28-1.16Z"/>
  <path class="cls-1" d="M340.19,362.11c.17-.53-.6-1.36-1.42-1.56-1.25-.3-2.68,.86-2.57,1.47,.1,.54,1.45,.74,2.27,.71,.36-.01,1.54-.06,1.72-.62Z"/>
  <path class="cls-1" d="M329.24,365.21c.08-.53-.3-1.36-.71-1.56-.63-.3-1.34,.86-1.29,1.47,.05,.54,.73,.74,1.14,.71,.18-.01,.77-.06,.86-.62Z"/>
  <path class="cls-1" d="M332.92,352.16c.08-.53-.3-1.36-.71-1.56-.63-.3-1.34,.86-1.29,1.47,.05,.54,.73,.74,1.14,.71,.18-.01,.77-.06,.86-.62Z"/>
  <path class="cls-1" d="M335.88,369.18c1.06-.4,2.42-1.68,2.54-2.37,.18-1.06-2.47-.83-3.6-.17-1.01,.58-.97,1.61-.65,2.08,.14,.21,.59,.89,1.72,.47Z"/>
  <path class="cls-1" d="M350.57,353.15c1.06-.4,2.42-1.68,2.54-2.37,.18-1.06-2.47-.83-3.6-.17-1.01,.58-.97,1.61-.65,2.08,.14,.21,.59,.89,1.72,.47Z"/>
  <path class="cls-1" d="M345.59,352.77c.54-.1,.92-1.17,.71-1.99-.33-1.24-2.02-1.96-2.51-1.57-.43,.35,.03,1.63,.44,2.34,.18,.31,.78,1.33,1.36,1.23Z"/>
  <path class="cls-1" d="M338,339.5c.29,.47,1.42,.45,2.11-.05,1.05-.75,1.12-2.59,.58-2.9-.48-.28-1.52,.61-2.03,1.24-.23,.28-.97,1.2-.67,1.7Z"/>
  <path class="cls-1" d="M341.61,350.86c.5-.19,1.08-.87,1.09-1.27,.01-.61-1.29-.6-1.81-.27-.46,.29-.36,.89-.17,1.19,.08,.13,.36,.55,.89,.35Z"/>
  <path class="cls-1" d="M352.93,349.05c.5-.19,1.08-.87,1.09-1.27,.01-.61-1.29-.6-1.81-.27-.46,.29-.36,.89-.17,1.19,.08,.13,.36,.55,.89,.35Z"/>
  <path class="cls-1" d="M349.32,341.35c.13,.31,.69,.57,1.05,.48,.54-.14,.63-1.09,.38-1.38-.23-.26-.77-.04-1.05,.17-.12,.09-.52,.4-.38,.73Z"/>
  <path class="cls-1" d="M320.49,351.93c.13,.31,.69,.57,1.05,.48,.54-.14,.63-1.09,.38-1.38-.23-.26-.77-.04-1.05,.17-.12,.09-.52,.4-.38,.73Z"/>
  <path class="cls-1" d="M335.8,342.97c.13,.31,.69,.57,1.05,.48,.54-.14,.63-1.09,.38-1.38-.23-.26-.77-.04-1.05,.17-.12,.09-.52,.4-.38,.73Z"/>
</svg>