<svg viewBox="0 0 24 24" xmlns="http://www.w3.org/2000/svg"><circle cx="12" cy="12" r="12" fill="#0077FF"/><path d="M12.785 16.241s.288-.032.435-.194c.135-.148.131-.427.131-.427s-.02-1.304.576-1.496c.588-.19 1.341 1.26 2.14 1.818.605.422 1.064.33 1.064.33l2.137-.03s1.117-.071.587-.964c-.043-.073-.308-.661-1.588-1.87-1.34-1.264-1.16-1.059.453-3.246.983-1.332 1.376-2.145 1.253-2.493-.117-.332-.84-.244-.84-.244l-2.406.015s-.178-.025-.31.056c-.13.079-.213.262-.213.262s-.381 1.03-.89 1.907c-1.073 1.85-1.502 1.948-1.677 1.832-.407-.267-.305-1.075-.305-1.648 0-1.793.267-2.541-.521-2.733-.262-.064-.454-.106-1.123-.113-.858-.009-1.585.003-1.996.208-.274.137-.485.441-.356.458.159.022.519.099.71.363.246.341.237 1.107.237 1.107s.142 2.11-.33 2.371c-.325.18-.77-.187-1.726-1.865-.49-.86-.86-1.81-.86-1.81s-.072-.176-.2-.271c-.155-.115-.372-.151-.372-.151l-2.286.015s-.343.01-.469.16c-.112.134-.009.41-.009.41s1.79 4.258 3.818 6.403c1.858 1.966 3.968 1.837 3.968 1.837h.957z" fill="#fff"/></svg>
